# xmcd CD database file
#
# Track frame offsets:
#	150
#	38639
#	92341
#	119462
#	150275
#	168771
#	189554
#	222610
#	246631
#	277617
#	296790
#
# Disc length: 4318 seconds
#
# Revision: 0
# Processed by: cddbd v1.4PL0 Copyright (c) Steve Scherf et al.
# Submitted via: CDex 1.50beta8
#
DISCID=9410dc0b
DTITLE=The Notting Hillbillies - Ronnie Scott's London 01-08-1998 CD 2
DYEAR=1998
DGENRE=Country
TTITLE0=Blues stay away
TTITLE1=Calling Elvis
TTITLE2=Mississippi Blues
TTITLE3=Mystery train
TTITLE4=Bewildered
TTITLE5=Setting me up
TTITLE6=Feel like going home
TTITLE7=Wild Theme
TTITLE8=His latest flame
TTITLE9=The long highway
TTITLE10=The next time i'm in town
EXTD=YEAR: 1998
EXTT0=
EXTT1=
EXTT2=
EXTT3=
EXTT4=
EXTT5=
EXTT6=
EXTT7=
EXTT8=
EXTT9=
EXTT10=
PLAYORDER=
